<svg xmlns="http://www.w3.org/2000/svg" version="1.1" xmlns:xlink="http://www.w3.org/1999/xlink" xmlns:svgjs="http://svgjs.com/svgjs" width="378.68506" height="378.68506"><svg version="1.1" id="SvgjsSvg1011" width="378.68506" height="378.68506" viewBox="0 0 378.68506 378.68506" sodipodi:docname="Dpsg-rado-simple.svg" inkscape:version="1.1.2 (0a00cf5339, 2022-02-04, custom)" xmlns:inkscape="http://www.inkscape.org/namespaces/inkscape" xmlns:sodipodi="http://sodipodi.sourceforge.net/DTD/sodipodi-0.dtd" xmlns="http://www.w3.org/2000/svg" xmlns:svg="http://www.w3.org/2000/svg">
  <sodipodi:namedview id="SvgjsSodipodi:namedview1010" pagecolor="#ffffff" bordercolor="#666666" borderopacity="1.0" inkscape:pageshadow="2" inkscape:pageopacity="0.0" inkscape:pagecheckerboard="0" showgrid="false" inkscape:lockguides="true" inkscape:zoom="2.9017357" inkscape:cx="234.85944" inkscape:cy="192.81563" inkscape:window-width="2560" inkscape:window-height="1407" inkscape:window-x="0" inkscape:window-y="0" inkscape:window-maximized="1" inkscape:current-layer="svg16927"></sodipodi:namedview>
  <defs id="SvgjsDefs1009"></defs>
  <g id="SvgjsG1008" style="display:inline">
    <circle style="fill:#fffffe;stroke:#464646;stroke-width:11.0537;stroke-miterlimit:4;stroke-dasharray:none;stroke-opacity:1;fill-opacity:1" id="SvgjsCircle1007" cx="189.34253" cy="189.34253" r="183.81567"></circle>
    <g id="SvgjsG1006" style="clip-rule:evenodd;fill:#a4202d;fill-opacity:1;fill-rule:evenodd;image-rendering:optimizeQuality;shape-rendering:geometricPrecision;text-rendering:geometricPrecision" transform="matrix(1.6796252,0,0,1.6796252,36.493242,32.797708)">
      <path class="fil0" d="m 72.6014,0.200007 c -3.879701,0.9029479 -5.290584,5.1155842 -4.343616,8.6437863 0.314494,4.7188997 0.628987,9.4377987 0.943481,14.1566977 -13.133533,0.133338 -26.267067,0.266677 -39.4006,0.400015 -6.400233,6.6001 -12.800467,13.2002 -19.2007,19.8003 20.3338,1.53339 40.6676,3.06678 61.0014,4.60017 0.866697,9.333533 1.733393,18.667067 2.60009,28.0006 C 60.852043,67.176996 47.338798,57.946646 31.861651,53.587723 23.426619,51.143231 12.689464,51.800952 7.199793,59.601358 -0.44236062,70.937761 -0.3789332,85.332407 0.16958554,98.486397 1.7815169,119.04107 9.9213275,139.50292 24.600457,154.20361 c 6.224153,5.05581 15.677079,4.32374 22.200409,0.20001 9.282942,-5.53013 16.88161,-13.38693 25.000507,-20.40074 0.291442,-2.64352 -4.847682,-0.57827 -6.747308,-1.57192 -7.188411,-0.77762 -9.339418,-8.83891 -10.496599,-14.79453 -1.001643,-6.49066 -2.939041,-12.88864 -3.35645,-19.434049 2.380075,-1.971507 6.095702,-0.07127 8.813174,0.58671 6.281871,2.730839 13.673988,5.237239 17.433375,11.305319 0.755664,4.56704 0.99634,9.2839 1.554058,13.90852 7.800132,0 15.600265,0 23.400397,0 1.01656,-5.99105 -0.39857,-13.52583 5.20019,-17.60066 6.53214,-4.57408 14.17862,-9.001839 22.40082,-8.99993 2.36938,3.75323 -1.27373,8.89072 -1.16612,13.17957 -1.68296,7.01422 -1.60054,15.83291 -8.0176,20.44961 -3.12372,2.27701 -7.37817,1.22464 -10.81701,1.97171 1.24235,2.76983 4.55284,4.61468 6.69698,6.93993 7.55683,6.67173 15.26894,13.82099 24.90375,17.26056 6.14698,1.20538 13.36344,0.47893 17.44346,-4.84301 13.95915,-14.99142 21.69911,-35.23972 22.86479,-55.5981 0.39367,-12.730216 0.34202,-26.749391 -7.43281,-37.516209 -5.9846,-7.91934 -17.02729,-8.033669 -25.67089,-5.273061 -15.25384,4.613002 -28.62684,13.729583 -41.80542,22.428208 0.86671,-9.600199 1.7334,-19.200399 2.60009,-28.8006 20.5338,-1.53339 41.0676,-3.06678 61.6014,-4.60017 -6.4001,-6.533433 -12.8002,-13.066867 -19.2003,-19.6003 -13.3397,-0.0668 -26.6794,-0.133605 -40.0191,-0.200407 0.35347,-6.077203 1.2316,-12.218269 1.26578,-18.2566058 C 112.32914,0.4782021 107.43351,-0.57165439 103.54995,7.8e-5 93.242162,0.1318129 82.879834,-0.26442222 72.6014,0.200007 Z" id="SvgjsPath1005" style="fill:#a4202d;fill-opacity:1"></path>
      <path class="fil0" d="m 51.2011,175.604 c -0.834288,0.77506 -0.824464,2.23151 0.400015,2.6001 3.360953,1.67902 7.196754,3.13843 11.000418,2.40019 3.641758,-2.55965 6.498798,-6.06561 10.013733,-8.79518 1.252881,-0.49087 4.610274,-5.2848 4.108943,-2.24999 -0.195664,5.07771 -0.786955,10.15725 -0.684555,15.23536 -0.0953,1.24677 1.042023,1.81853 2.137735,1.60991 8.869067,-0.0314 17.753603,0.0628 26.613021,-0.047 1.59889,-0.21912 1.12219,-2.3464 1.21191,-3.49842 -0.19226,-4.88717 -0.54559,-9.76974 -0.80002,-14.65513 4.62134,3.99283 9.09768,8.18242 13.76181,12.10802 1.73983,0.9358 3.92238,0.42542 5.77953,0.0573 2.22125,-0.68949 4.62079,-1.3089 6.45959,-2.76493 0.48515,-2.44776 -2.82397,-4.34697 -3.64366,-6.60439 -8.55536,-12.70788 -17.05434,-25.45359 -25.55744,-38.19645 -7.333466,0 -14.666931,0 -22.000397,0 C 70.401379,147.07011 60.801298,161.33731 51.2011,175.604 Z" id="SvgjsPath1004" style="fill:#a4202d;fill-opacity:1"></path>
    </g>
  </g>
  <g id="SvgjsG1003">
    <path style="fill:#a4a4a4;fill-opacity:1;stroke:none;stroke-width:0.567269px;stroke-linecap:butt;stroke-linejoin:miter;stroke-opacity:1" d="m 210.41947,112.25267 13.54642,-2.10897 17.6187,-11.374495 26.13887,-3.617814 13.83332,8.451859 -8.87259,30.50745 17.56306,5.02222 4.865,7.26367 0.58045,10.70515 -8.50565,13.44656 -26.36119,12.46347 -27.81388,19.80822 -8.77612,16.2019 2.57221,38.00493 4.67317,24.41481 -31.67758,0.7603 -20.06653,-32.5156 -28.43745,11.4279 -49.18651,-21.95302 15.98806,-36.043 25.15809,-20.35779 -21.91256,-1.7244 -15.9239,-8.36242 -0.13087,-7.39989 26.22912,-12.01544 16.44792,-16.29835 13.96478,-5.77543 9.8294,-1.10606 13.09596,-12.15712 11.56477,-5.49171 z" id="SvgjsPath1002"></path>
    <path id="SvgjsPath1001" d="m 269.90458,88.800364 c -10.28901,4.503191 -22.79764,3.700281 -31.92192,10.595448 -5.50093,1.907918 -14.38338,8.609328 -15.47452,10.969848 6.56474,3.46661 12.75889,-10.10115 20.48343,-8.9352 7.11028,-2.039419 21.24593,-7.868209 21.47124,0.97225 5.41968,-1.39728 19.27685,-0.17312 8.55665,6.17151 -8.84854,6.60635 -13.25666,16.74882 -20.43511,24.85138 -0.90444,5.42306 -4.75381,10.98039 -6.567,16.03248 -1.96771,8.13364 6.9485,7.15728 11.58175,4.2719 8.87799,-1.04655 17.49026,2.21976 25.98631,-1.99114 4.22406,-3.67723 11.88241,-9.23791 10.09228,1.03186 -1.13243,9.39231 -8.59321,18.77267 -18.01816,21.25422 -10.49592,-0.84163 -17.88899,9.57377 -27.10941,10.3242 -6.72507,4.5963 -10.70417,14.1832 -19.42479,16.13343 -7.98614,5.44885 -14.1747,3.19611 -20.9407,7.02497 -4.41042,-0.10016 -9.04082,-3.33155 -9.09683,-5.27073 -1.07312,6.1325 -6.51752,2.36321 -8.5498,2.26146 -7.10051,1.57392 -1.92832,-7.41478 -9.33753,-5.49103 -0.0921,-6.3517 -11.00921,-3.08535 -15.18607,-6.69221 -8.55229,-1.5139 -12.36699,-12.47338 -5.92633,-19.734 2.88325,-7.62819 8.61149,-14.58458 6.87402,-22.42095 -8.14126,2.64242 -1.94985,-4.71625 0.9294,-5.99256 -0.5984,-11.52088 21.12595,-9.15691 12.17082,1.83342 -0.64024,4.36906 -3.49918,21.68283 3.58723,16.06121 -0.82175,-5.74793 9.20238,0.39191 5.1407,-8.48818 -0.74358,-6.4746 -2.53291,-13.61959 2.33261,-17.7799 -5.44693,-3.62994 15.56009,-13.58283 7.83455,-2.6673 -5.90964,11.62176 14.61869,-0.66232 12.9014,-7.35067 3.74032,-7.25752 -4.59099,-6.07262 -7.98553,-6.12727 2.76001,-6.98311 20.07568,3.7123 16.20072,-8.23314 -0.0673,-0.83473 -14.26747,-0.0863 -19.24008,-1.07535 -10.51071,-0.11957 -18.92862,7.83416 -27.39566,13.31021 -5.44033,4.72247 -10.18561,4.31988 -11.79111,3.87586 -9.90409,3.64264 -17.96631,9.04812 -25.64013,16.03527 -4.98445,5.70872 -10.74371,11.61207 -17.82663,14.51334 -8.18424,0.68513 -20.153661,4.20533 -16.62757,14.95117 1.36467,1.88163 1.79065,1.99049 3.17132,2.96633 2.29791,2.05218 18.34851,9.41486 27.80723,8.80563 2.01168,0.32991 3.92518,-0.58405 4.28401,0.0437 -10.60891,5.04052 -5.58649,5.13961 -14.96285,9.06269 -17.63653,10.02565 -13.2369,12.78048 -25.285651,23.48486 -6.538356,5.90734 -18.45678,7.45452 -21.883317,15.73384 -0.498479,6.36288 17.117011,4.1654 7.04961,10.76679 -4.919897,11.15287 15.168509,11.77976 22.760808,12.78977 8.26139,2.34362 23.43434,-5.96677 27.03899,1.73625 -4.14422,7.80537 8.111,13.28429 -0.0105,21.05509 -8.37906,12.17942 8.65886,12.0768 14.69998,5.12621 6.44818,-2.32695 12.52176,-12.60717 18.72167,-8.10484 -1.74742,9.18633 6.90768,-1.19212 10.30512,-4.61282 3.28608,2.18867 -3.68568,19.32493 4.64281,25.13504 7.29428,8.48582 8.2844,-4.00124 10.49617,-7.19864 7.5008,4.82366 6.5718,17.95655 13.52453,24.2454 6.0673,0.889 14.89969,2.28439 14.76857,-6.59767 6.24802,2.27622 19.11133,5.51708 15.68941,-6.5421 -4.10279,-9.32538 1.45001,-16.51068 3.23317,-24.69271 0.97553,-11.01909 -2.17154,-20.76695 -7.31836,-30.81125 -2.63541,-11.02511 -4.22172,-23.45463 -0.30564,-34.31256 7.14872,-8.02662 14.90232,-15.41464 23.75786,-21.69449 7.87225,-6.31139 17.48036,-8.73461 26.48713,-12.8005 10.23052,-2.84119 17.63486,-13.37934 19.62287,-23.47718 2.01981,-13.24227 -12.78908,-20.48458 -23.04336,-20.27568 7.24725,-7.73729 14.74804,-16.10703 9.88655,-27.93356 -1.6671,-8.867676 -2.99785,-20.613591 -15.68464,-16.269614 z m -15.25159,12.696046 c -4.15325,1.88316 0.92442,9.14473 -5.82982,4.12574 -5.68218,-2.749 -6.42719,9.83571 0.75957,4.41386 3.69434,0.87652 -2.6537,8.16838 5.0201,3.99903 4.83638,3.91894 -8.8872,6.06214 -7.1336,1.55842 -8.20421,2.91367 7.72467,7.78777 0.0804,14.90116 -4.18777,5.71268 3.57331,5.61568 2.85173,-0.52592 4.15044,-6.60785 6.31168,-14.71751 12.76008,-19.24226 -8.13902,-0.66737 -1.11425,-9.18004 -8.50847,-9.23003 z m -57.61352,13.17198 c 7.76295,2.59221 -12.74595,8.91907 -14.96077,9.74985 3.83555,-4.2201 8.29126,-11.23758 14.96077,-9.74985 z m 41.92741,7.19978 c -4.48008,2.67048 -10.43784,13.26471 -8.96115,15.53473 2.74737,-2.42236 12.62891,-15.47771 8.96115,-15.53473 z m -76.52968,14.16357 c -0.5076,5.71282 -9.36153,15.6327 -3.15288,20.80798 7.83665,4.35509 -5.46923,8.73091 -3.35823,14.36325 0.53752,12.59345 -16.20795,7.7966 -24.64726,8.24412 -8.17617,0.7227 -24.86069,-2.43415 -23.09564,-12.34026 9.54755,0.11654 16.96241,-3.64795 23.5608,-9.191 5.8039,-1.69245 5.9647,-9.4012 12.94046,-12.45035 5.44302,-1.62874 12.21577,-15.07706 17.75275,-9.43374 z m -17.24951,0.53323 c -1.49201,0.3828 -1.49486,-0.6653 0,0 z m 143.28757,5.00671 c 6.91043,5.91595 -7.75626,4.48519 -1.22714,-0.93464 l 0.68728,0.18852 z m -6.95755,4.79966 c 4.74971,8.64248 -7.5189,0.31554 0,0 z m -131.15993,37.12548 c -0.21281,7.3294 -9.60397,0.69831 0,0 z m -5.55867,4.00719 c -2.18864,5.81274 -5.76743,-0.29302 0,0 z m 5.23192,2.99404 c 9.60225,2.20507 -6.03432,10.1485 -0.59563,1.69557 -2.99465,-1.84562 0.10111,-3.2176 0.59563,-1.69557 z m -9.86083,0.61038 c 0.62672,4.45665 -8.12222,-0.13622 0,0 z m 6.37213,0.40503 c -2.94576,3.50728 3.33095,10.42836 -3.95897,6.18345 2.58531,6.05388 -10.43684,8.20211 -3.79723,-0.29789 2.8382,-1.3675 3.98281,-7.39219 7.7562,-5.88556 z m 15.3242,5.24497 c 4.21626,3.27701 3.53882,7.80994 -1.97693,7.4013 3.72428,-4.52278 -4.55399,-6.44759 1.97693,-7.4013 z m -2.91236,3.84154 c 1.71818,7.3815 -6.96546,-2.46682 0,0 z m 12.45893,3.18352 c 4.97669,4.72545 -9.34362,12.34559 -6.81744,2.86449 3.38561,1.39546 3.5809,-3.38371 6.81744,-2.86449 z m -12.55253,2.33488 c -6.10397,6.04643 -5.4302,-3.05448 0,0 z m -7.71202,1.79256 c 2.9023,4.76415 -6.46982,8.57782 -2.47995,0.56125 0.3479,-0.91898 1.79643,-2.66116 2.47995,-0.56125 z m 29.73113,0.92409 c -1.72181,5.57165 1.8132,8.46407 1.73414,1.24855 7.81783,-0.18278 0.5351,12.81832 -3.97072,11.27705 -1.07229,5.74561 -0.0342,6.14821 3.3507,1.39517 0.14162,5.76519 -7.02346,5.66951 -6.39794,11.98278 -4.55442,-0.68248 -2.74103,-6.26281 -4.95141,1.57381 -4.60919,3.04603 -3.98968,12.03852 -10.53759,5.22682 -7.6925,-8.18803 10.55142,-16.59859 13.20342,-23.66896 -5.40313,-1.17981 4.05467,-11.85987 4.25825,-5.24076 3.52429,1.38988 -1.16795,-6.20963 3.31115,-3.79446 z m -55.1737,1.48397 c 3.85048,7.90043 -10.54806,4.30984 0,0 z m 14.88684,1.22984 c -5.11274,7.86973 -4.09533,-1.15095 0,0 z m 20.86698,-0.0352 c -4.25151,6.18659 -4.11091,-0.9065 0,0 z m 29.15365,1.31039 c -1.26288,11.2372 -6.76671,-0.99218 0,0 z m 14.13634,0.49012 c 0.63463,4.72095 -2.66069,8.72192 2.81478,9.64414 3.29403,7.25707 -5.46907,11.50549 -4.9854,17.25403 -1.3776,-2.83137 -4.44189,3.8301 -5.47617,-3.82167 2.3852,-6.02939 -0.29865,-12.89898 1.01031,-17.07706 8.78261,4.64348 1.61566,-3.62124 6.63648,-5.99944 z m -70.44855,1.45107 c -0.21191,4.63212 -12.47115,6.03877 -3.34828,0.50576 0.97654,-0.53148 2.25121,-1.07474 3.34828,-0.50576 z m 42.85035,1.18389 c 3.57871,4.33854 6.41731,-1.31462 0,0 z m -28.16717,2.05408 c -1.77167,9.34463 -8.3701,-0.61836 0,0 z m 15.32307,2.9827 c 4.0483,7.96225 -18.48142,11.97393 -7.43803,5.61313 2.1621,-1.54557 4.15141,-8.38147 7.43803,-5.61313 z m 29.42083,-0.19003 c 0.27535,4.97347 -2.41739,9.42953 1.52633,13.01103 0.56703,5.5053 -4.63121,21.5173 -3.7613,7.63706 0.89359,-6.39945 -3.53937,-16.95265 2.23497,-20.64809 z M 142.30029,222.1 c -0.30966,4.19346 -11.49958,9.08835 -4.10276,1.29375 0.98293,-0.69918 2.74911,-2.57271 4.10276,-1.29375 z m 73.00637,1.08916 c 3.056,6.20002 1.64471,15.71873 1.21339,20.45968 -3.52006,-5.96313 -2.35788,-17.96975 -2.51648,-21.11836 z m -44.63498,3.59705 c -5.57049,5.88559 4.72529,-0.18704 0,0 z m 39.37867,12.10325 c 0.95932,5.14144 11.16755,15.26647 3.91533,18.39101 -7.03031,0.0322 -1.38634,-4.59776 -5.32124,-8.66725 -3.47964,6.74299 0.0256,-9.07863 0.22996,-10.16688 z m -7.57077,4.02647 c 7.53404,-1.05113 -1.18134,4.74187 -1.02669,-1.07023 z m 2.47102,7.29054 c -2.02855,5.87757 0.0954,7.22151 2.65992,8.14938 3.79454,3.78856 -0.26491,9.8737 -4.44079,3.74029 -1.49099,-3.76699 -2.39094,-10.31014 1.78087,-11.88967 z m 16.77357,8.6015 c 7.40406,9.41443 -8.8675,4.21457 0,0 z m -15.62031,2.30708 c -0.68704,5.92982 3.08191,-0.19123 0,0 z" stroke="none" fill="#464646" fill-rule="evenodd" style="stroke-width:0.567269"></path>
    <path id="SvgjsPath1000" d="m 239.02984,104.50634 c -3.96984,2.32707 -6.42897,6.38563 -0.35488,6.88123 5.05346,-1.64897 3.55424,-7.43845 -0.27847,-1.95004 -7.35256,-0.37001 4.69095,-3.88174 0.63335,-4.93119 z m 3.45864,18.13445 c -4.35357,7.51825 12.11023,1.00563 2.18796,0.31767 -0.68692,0.69832 -1.70465,-1.29593 -2.18796,-0.31767 z m -20.8165,2.0104 c -6.72254,2.52245 1.41194,9.97 -6.05559,9.67477 -1.55052,-1.29368 1.40402,-4.8522 -3.00312,-2.24639 -4.76166,-0.48124 2.59505,7.47471 -2.56916,3.93174 -4.30679,-1.81521 -8.34447,6.27718 -12.87587,7.05059 -1.76518,2.77371 -8.93504,5.98084 -1.84363,6.64271 4.97505,1.88523 5.6985,2.98882 7.94744,7.30699 0.12297,-2.11071 3.67643,-6.23936 6.47594,-3.70483 -0.35242,4.63286 -4.13417,-3.50157 -3.55904,2.59526 0.8345,3.53659 -2.86966,5.85732 -5.55697,3.87898 -3.4882,1.1471 -6.22172,3.75928 -2.03135,-1.22469 5.34794,-2.7449 -4.08236,-3.67514 -5.41887,-0.47853 -0.0175,-5.06439 -3.31766,-2.73568 -1.48724,1.13113 -2.32881,3.2528 -12.26269,5.64965 -8.19768,10.71188 -0.0849,3.30661 -3.68715,0.56918 -5.6702,3.06226 0.11735,-2.67496 5.44096,-7.88739 -0.97514,-5.70559 -2.78429,4.64708 -10.26541,3.92935 -4.84469,-0.31476 1.50547,-3.66506 -5.96529,-2.57608 -4.49028,0.29717 2.60125,2.79091 0.82133,10.5769 -5.01069,10.24658 -3.34991,2.26647 -5.54153,11.91592 1.72793,9.67535 0.87573,4.41444 6.19574,1.77515 7.72674,5.62212 4.03708,2.26256 12.86234,-2.81438 11.12244,4.58757 6.11409,-4.87773 8.94096,-10.62864 14.78324,-16.07179 2.31022,1.3826 -9.60406,8.54155 -1.08823,9.17047 -1.47138,0.5945 -8.75167,3.59919 -3.19895,6.26773 6.20214,-0.88668 9.9272,4.45512 16.17905,1.22185 1.2324,1.55733 5.97567,-1.25323 2.44188,2.23837 -1.56963,7.35299 7.09654,-5.1501 9.81006,1.0842 4.6207,-1.85791 6.8445,-2.04903 7.53589,-7.00875 4.04128,-7.81151 -2.63023,1.53326 -5.44032,-1.12823 -0.0323,-5.24883 9.98605,-7.26466 7.44479,-12.18537 -3.86094,0.6103 0.423,-5.71088 -5.20734,-1.6996 -0.24233,-2.08986 -5.95869,-1.7649 -2.50634,-5.89343 4.41697,-5.77647 -7.54385,2.49637 -3.10016,-4.12401 -2.70111,3.11671 -6.68981,1.15305 -1.56257,-1.50513 -0.92029,-1.96791 -3.53127,-0.97434 -4.10407,-4.23318 -7.62161,1.18676 -1.42607,-3.77517 1.70785,-6.19918 0.46612,-2.76093 -6.59907,-1.48969 -3.19727,-4.26828 2.30198,-1.96461 7.8339,3.94772 6.56061,-1.53162 2.80854,-2.01564 4.96095,5.30774 4.86551,-0.71581 -2.31832,-2.29535 3.86252,-3.03331 4.66659,-5.93315 -0.12368,2.49251 0.0614,4.08551 2.67844,4.60977 -1.70975,3.02643 5.91033,-1.7108 3.16741,3.88884 6.29379,-0.0615 6.70518,7.54148 12.65921,6.56145 -4.28643,-5.46201 -6.06667,-12.08929 -0.0822,-17.45124 4.47379,-4.81969 -0.97301,-5.00607 -3.83543,-6.64305 0.66386,-7.07148 -2.36273,-1.8512 -4.94206,0.0282 -5.90316,-1.84373 -9.35016,7.21539 -12.50317,6.26329 -0.0988,-3.9909 -8.48074,2.76454 -5.75132,-3.22351 5.52159,2.99246 13.07752,-12.09474 5.26537,-9.63264 1.26893,-3.16255 -5.98315,0.25847 -3.32284,-4.72834 l -0.45852,-0.18792 z m 24.05731,3.3276 c -4.45862,4.80506 4.85493,-1.73572 0,0 z m -26.29972,8.71154 c -2.83996,4.31967 -6.61558,2.67226 -4.73065,8.63672 3.81498,1.59508 -3.00441,4.47837 1.21954,5.16578 -4.18506,0.7608 -10.38718,-6.47227 -11.81196,0.75135 -1.79122,-3.27314 3.39187,-4.60468 0.81996,-7.69937 1.54836,-2.85985 8.31578,3.83521 6.85541,-1.03919 -4.43038,-1.36104 2.1514,-7.24457 5.10183,-4.67703 0.31823,-0.75113 2.11949,-3.13455 2.54587,-1.13826 z m -10.28288,1.0364 c 1.28175,4.98591 -3.96404,-1.22607 0,0 z m -52.83996,0.0448 c -0.29286,4.68982 -3.38749,6.55681 -7.5668,7.69557 5.42242,4.84732 -1.69755,1.88575 -2.34466,3.76808 1.08991,2.22109 3.73526,6.31122 3.14791,7.34131 -2.8716,-0.89499 -3.53045,-9.40656 -6.10892,-4.40768 -2.55831,1.35481 1.16523,5.15478 3.75306,3.56472 4.75512,4.14982 -4.33328,2.77235 -3.84078,8.17407 -2.32237,-0.26278 -3.51258,-3.25968 -4.23649,0.4855 -4.2693,-2.7968 -4.66474,-0.88971 -4.47625,3.63825 -2.33289,3.03502 -5.24009,0.4331 -8.00485,2.77886 -3.99539,-1.62656 -7.85628,1.23639 -11.84293,0.25763 -6.23316,-0.96699 -3.61086,3.27661 1.05548,3.93043 2.02202,2.7727 6.37092,1.96146 9.09867,2.83945 7.22439,-0.36769 14.78192,0.19448 21.83758,0.59904 3.94664,0.82697 10.08863,-4.31655 3.92507,-5.46166 2.58051,-2.73288 5.66886,-3.80645 5.15545,-8.35502 6.55694,-4.28002 -2.48902,-7.89262 0.28679,-13.45023 -2.03906,-4.46952 5.40142,-12.51225 0.16167,-13.39832 z m 19.77045,0.55479 c -5.57954,-1.38578 -8.12664,7.23198 -6.58712,9.11827 2.39702,1.22785 -0.85707,7.64955 -0.98696,10.7667 -6.38247,6.6159 4.86754,2.40422 4.00256,2.91753 -2.33442,5.35251 8.36542,-2.38834 3.41836,-3.27711 1.11556,-2.79779 2.04888,-7.53124 -2.08344,-4.11554 3.76875,-4.12596 6.55372,-10.52608 3.32633,-12.16791 1.2597,-0.88117 0.11309,-3.29273 -1.08973,-3.24194 z m 15.02979,0.97116 c -3.89108,2.48983 0.22082,5.63535 0.8112,0.83105 1.90038,-1.44031 0.70827,-2.53289 -0.8112,-0.83105 z m 51.99541,-0.01 c 0.12355,5.44972 -5.53892,-1.12394 0,0 z m -47.9678,1.60087 c -5.49073,1.17794 -1.41736,4.58975 -0.0295,1.11639 2.31733,1.33185 1.76294,-1.96664 0.0295,-1.11639 z m 27.5704,2.48294 c 3.70451,-0.80171 6.29283,3.19668 0.79099,3.28349 -0.81301,4.30564 -9.12623,4.32525 -4.90482,0.64768 4.50884,0.30199 -2.35423,-4.56028 4.11383,-3.93117 z m 64.97157,8.61114 c -2.36142,1.50038 -4.25945,4.24127 0.0557,4.10247 3.32827,-0.1793 0.96769,-7.55664 -0.0557,-4.10247 z m -64.05883,2.34794 c -1.53263,3.51043 2.90438,-1.07346 0,0 z m 40.95907,0.59507 c -2.84978,1.21084 1.68788,7.24594 2.78076,2.31956 3.01527,-1.90709 -1.36692,-3.0738 -2.78076,-2.31956 z m -35.34992,1.05058 c -0.71208,2.25152 -7.68916,0.77622 -5.06231,4.76562 3.3769,1.9223 6.0673,-3.58213 6.67091,-5.07674 -0.53795,-0.16028 -1.19086,-0.1016 -1.6086,0.31112 z m 29.07536,0.15827 c -6.20711,-0.98871 -3.51145,8.30101 -0.57647,3.12736 -0.6725,-2.37059 6.67025,-4.08174 0.57647,-3.12736 z M 172.40242,155.944 c 2.19048,4.07616 -6.77228,5.38415 -1.48058,0.75504 l 0.8173,-0.81084 z m 102.54632,0.97684 c -6.09295,4.67099 2.54794,12.72457 5.91895,4.75279 2.64351,-3.15213 -4.94284,-2.55913 -3.78531,-5.95015 l -0.99338,0.24608 z m -56.20727,0.47934 c -1.82388,5.13816 4.22996,4.41225 2.27532,-0.032 -0.60443,-0.65964 -1.72735,-0.64702 -2.27532,0.032 z m -7.67515,2.21802 c -0.72282,3.17621 -7.35371,11.96569 -8.44096,8.16868 3.33599,-1.33434 3.42248,-12.63719 8.44096,-8.16868 z m 19.71543,0.20252 c -3.06283,3.69227 1.29593,2.00457 0.60641,5.60632 5.10723,3.17332 -3.29905,2.40908 1.71443,5.14541 -0.58499,3.13533 -2.83241,5.93827 2.66015,6.00638 5.46511,-2.8458 -3.33831,-0.78903 0.65823,-4.72577 0.0994,-4.23578 1.04455,-5.83479 -3.81937,-6.85293 0.34657,-2.11082 3.45363,-6.42319 -1.81985,-5.17941 z m -14.73197,1.15212 c 0.72783,4.87955 4.46884,-1.86481 0,0 z m 48.18325,0.95982 c -3.9526,1.00194 -7.23282,6.60164 -1.09199,3.31342 4.13825,0.79584 6.48845,-5.11883 1.09199,-3.31342 z m -41.93308,0.24733 c -0.0871,7.42861 7.01004,-1.00341 0,0 z m 61.51804,0.1248 c 2.65156,4.43706 -9.55573,1.22686 -6.75844,7.96899 -0.10312,4.55373 10.84078,-4.96391 8.9844,-6.37497 -1.3516,0.32611 -0.83956,-2.25858 -2.22596,-1.59402 z m -93.54264,1.23211 c -1.88754,4.848 -2.90764,-3.12419 0,0 z m 22.6,2.43986 c 6.31249,1.46677 -2.43687,3.64537 -0.53926,-0.42375 z m -48.01534,3.49097 c -0.89866,3.88522 4.36425,-1.1621 0,0 z m -2.54761,2.10287 c -3.11275,2.59783 -3.80425,8.04438 1.06704,4.12858 1.83457,-1.00433 1.65844,-6.1708 -1.06704,-4.12858 z m 38.25491,4.02151 c -0.88145,2.84928 -9.77103,7.97606 -4.1751,2.24866 0.31929,-1.1003 3.1102,-2.91489 4.1751,-2.24866 z m -8.59525,1.80108 c -0.56729,5.42889 -6.03114,2.02798 0,0 z m 24.85885,0.79588 c -2.40891,4.07782 -7.57278,3.82915 -1.52482,0.51622 -0.24307,0.36552 1.40501,-1.37717 1.52482,-0.51622 z m 3.72242,1.42782 c -0.85106,1.44477 -3.13128,7.12755 -2.55923,0.5706 0.75755,-0.25587 1.75108,-1.33256 2.55923,-0.5706 z m -32.34,6.26038 c -0.28721,3.75557 -4.28612,-1.48191 0,0 z m 24.35512,6.45608 c 2.16132,3.03051 -8.24893,3.7214 -2.04783,-0.15356 l 0.44225,-0.11993 z m -7.98374,0.81744 c -2.03083,5.73678 -4.20522,-4.27465 0,0 z m -41.86387,38.21123 c -3.44845,2.28138 -4.35263,13.23354 -0.0169,5.38973 -1.07272,-1.61689 4.90586,-8.00768 0.0169,-5.38973 z m 2.69963,2.24581 c -1.10326,2.62516 -1.55985,11.57635 1.06753,4.2765 1.15636,-0.65816 0.33954,-5.47534 -1.06753,-4.2765 z" stroke="none" fill="#b6b6b6" fill-rule="evenodd" style="stroke-width:0.567269"></path>
  </g>
</svg><style>@media (prefers-color-scheme: light) { :root { filter: none; } }
</style></svg>